<?xml version="1.0" encoding="UTF-8" standalone="no"?>
<svg
   xmlns:dc="http://purl.org/dc/elements/1.1/"
   xmlns:cc="http://creativecommons.org/ns#"
   xmlns:rdf="http://www.w3.org/1999/02/22-rdf-syntax-ns#"
   xmlns:svg="http://www.w3.org/2000/svg"
   xmlns="http://www.w3.org/2000/svg"
   xmlns:xlink="http://www.w3.org/1999/xlink"
   xmlns:sodipodi="http://sodipodi.sourceforge.net/DTD/sodipodi-0.dtd"
   xmlns:inkscape="http://www.inkscape.org/namespaces/inkscape"
   width="250"
   height="250"
   fill="none"
   version="1.1"
   id="svg30"
   sodipodi:docname="logo.svg"
   inkscape:version="1.0.1 (3bc2e813f5, 2020-09-07)">
  <metadata
     id="metadata12">
    <rdf:RDF>
      <cc:Work
         rdf:about="">
        <dc:format>image/svg+xml</dc:format>
        <dc:type
           rdf:resource="http://purl.org/dc/dcmitype/StillImage" />
        <dc:title></dc:title>
      </cc:Work>
    </rdf:RDF>
  </metadata>
  <sodipodi:namedview
     pagecolor="#ffffff"
     bordercolor="#666666"
     borderopacity="1"
     objecttolerance="10"
     gridtolerance="10"
     guidetolerance="10"
     inkscape:pageopacity="0"
     inkscape:pageshadow="2"
     inkscape:window-width="1920"
     inkscape:window-height="1009"
     id="namedview10"
     showgrid="false"
     inkscape:zoom="1.1907678"
     inkscape:cx="32.208955"
     inkscape:cy="57.897392"
     inkscape:window-x="-8"
     inkscape:window-y="-8"
     inkscape:window-maximized="1"
     inkscape:current-layer="svg30" />
  <defs
     id="defs34">
    <linearGradient
       inkscape:collect="always"
       xlink:href="#linearGradient899"
       id="linearGradient1018"
       gradientUnits="userSpaceOnUse"
       x1="-335.43292"
       y1="582.07788"
       x2="-304.33881"
       y2="653.72913"
       gradientTransform="matrix(1.3888889,0,0,1.3888889,450.38046,157.96448)" />
    <linearGradient
       inkscape:collect="always"
       id="linearGradient899">
      <stop
         style="stop-color:#e6ba00;stop-opacity:1"
         offset="0"
         id="stop895" />
      <stop
         style="stop-color:#9f2700;stop-opacity:1"
         offset="1"
         id="stop897" />
    </linearGradient>
    <linearGradient
       inkscape:collect="always"
       xlink:href="#linearGradient899"
       id="linearGradient1020"
       gradientUnits="userSpaceOnUse"
       x1="-347.95114"
       y1="549.51031"
       x2="-345.16754"
       y2="550.57922"
       gradientTransform="matrix(1.3888889,0,0,1.3888889,450.38046,157.96448)" />
    <linearGradient
       inkscape:collect="always"
       xlink:href="#linearGradient899"
       id="linearGradient1022"
       gradientUnits="userSpaceOnUse"
       x1="-316.98846"
       y1="558.93115"
       x2="-315.48035"
       y2="559.62585"
       gradientTransform="matrix(1.3888889,0,0,1.3888889,450.38046,157.96448)" />
    <linearGradient
       inkscape:collect="always"
       xlink:href="#linearGradient899"
       id="linearGradient1024"
       gradientUnits="userSpaceOnUse"
       x1="-306.80667"
       y1="573.83881"
       x2="-305.87238"
       y2="575.17487"
       gradientTransform="matrix(1.3888889,0,0,1.3888889,450.38046,157.96448)" />
    <linearGradient
       inkscape:collect="always"
       xlink:href="#linearGradient899"
       id="linearGradient1026"
       gradientUnits="userSpaceOnUse"
       x1="-387.2316"
       y1="582.04529"
       x2="-376.89264"
       y2="585.25195"
       gradientTransform="matrix(1.3888889,0,0,1.3888889,450.38046,157.96448)" />
    <linearGradient
       inkscape:collect="always"
       xlink:href="#linearGradient899"
       id="linearGradient1028"
       gradientUnits="userSpaceOnUse"
       x1="-401.87378"
       y1="601.20129"
       x2="-381.70706"
       y2="608.46967"
       gradientTransform="matrix(1.3888889,0,0,1.3888889,450.38046,157.96448)" />
    <linearGradient
       inkscape:collect="always"
       xlink:href="#linearGradient899"
       id="linearGradient1030"
       gradientUnits="userSpaceOnUse"
       x1="-374.64761"
       y1="654.18719"
       x2="-327.59628"
       y2="679.84039"
       gradientTransform="matrix(1.3888889,0,0,1.3888889,450.38046,157.96448)" />
  </defs>
  <mask
     id="a"
     width="240"
     height="234"
     x="4"
     y="1"
     maskUnits="userSpaceOnUse"
     style="mask-type:alpha">
    <path
       fill="white"
       d="M244 123c0 64.617-38.383 112-103 112-64.617 0-103-30.883-103-95.5C38 111.194-8.729 36.236 8 16 29.46-9.959 88.689 6 125 6c64.617 0 119 52.383 119 117Z"
       id="path19" />
  </mask>
  <g
     id="g1046"
     transform="matrix(1.1098614,0,0,0.93770372,148.06342,-829.23899)">
    <path
       style="fill:url(#linearGradient1018);fill-opacity:1;stroke:#000000;stroke-width:2.03333;stroke-linecap:round;stroke-miterlimit:4;stroke-dasharray:none"
       d="m 13.233845,1131.1757 c 0,-2.4009 2.401348,-11.2887 5.336334,-19.7507 7.107305,-20.4913 7.019639,-27.0872 -0.595111,-44.7782 -3.379792,-7.8521 -7.08257,-17.4887 -8.2283893,-21.4148 -4.0717361,-13.9513 -6.2599862,-8.6778 -7.7505695,18.6782 l -1.11004168,20.3723 -7.18476392,-15.1163 c -3.9516116,-8.314 -8.4657776,-19.8402 -10.0314866,-25.6138 -2.858944,-10.5424 -5.635916,-13.7647 -5.789944,-6.7183 -0.05611,2.5691 -2.072778,0.015 -6.298458,-7.978 l -6.215848,-11.7572 -0.524208,7.2968 c -0.439889,6.123 2.562,20.4852 9.155667,43.8042 l 1.151527,4.0725 -6.332347,-4.8299 c -16.808958,-12.8208 -32.801917,-38.015 -36.426347,-57.3834 -2.104514,-11.24628 -0.835459,-31.73636 2.691402,-43.45525 2.585709,-8.59166 14.630653,-27.53828 15.620014,-24.57018 0.325862,0.97758 -0.965208,6.82064 -2.869041,12.98454 -3.682042,11.92105 -4.537848,22.61039 -1.810222,22.61039 0.908208,0 3.515069,-3.678 5.793027,-8.17334 2.277959,-4.49532 8.416098,-14.41457 13.640306,-22.04276 12.079306,-17.63775 15.770028,-25.83782 15.8825,-35.28786 l 0.09,-7.55814 4.067722,4.62162 c 2.237237,2.54191 4.8544865,7.45471 5.8161115,10.91734 2.0594584,7.41575 2.1826667,23.54854 0.2558473,33.50196 -1.0119445,5.2274 -0.803875,7.26652 0.8044305,7.88369 1.1931806,0.45786 2.5746667,-0.0699 3.0699584,-1.17265 0.4953056,-1.10282 0.4717222,1.49562 -0.052361,5.77433 -1.3437778,10.96999 1.797875,11.80149 6.172,1.63354 1.9717778,-4.58352 4.8641945,-9.49129 6.4275695,-10.90612 2.6491528,-2.39746 2.8385278,-1.61593 2.7839718,11.48857 -0.06472,15.53307 1.397473,18.91078 5.57032,12.86801 1.522986,-2.20546 7.194597,-8.62989 12.603556,-14.2765 5.408972,-5.6466 10.979513,-13.1229 12.378986,-16.614 1.399486,-3.49111 3.915569,-7.08122 5.591305,-7.97805 4.48132,-2.39834 5.270764,-2.01434 3.326709,1.61816 -2.277334,4.25525 -2.235042,14.72171 0.06528,16.14336 0.992153,0.61318 3.646695,-0.6163 5.898959,-2.73219 l 4.095028,-3.84708 -1.047598,5.238 c -0.788555,3.94287 0.244625,7.82394 4.178598,15.6965 3.089,6.18164 5.226166,13.06112 5.226166,16.82289 v 6.36437 l -5.824611,-2.43368 c -7.763903,-3.24396 -8.757819,-3.12022 -13.567,1.68894 -5.296528,5.29659 -5.270167,11.22749 0.113472,25.53059 2.329875,6.1899 3.623848,11.8667 2.875486,12.6151 -0.748361,0.7483 -0.873111,6.0935 -0.27725,11.8782 1.420084,13.786 -0.89818,28.1736 -6.237305,38.7098 -2.369278,4.6756 -10.653111,17.8247 -18.408528,29.2204 -10.988945,16.1469 -14.100736,19.756 -14.100736,16.3541 z"
       id="path995" />
    <path
       style="fill:url(#linearGradient1020);fill-opacity:1;stroke:#000000;stroke-width:0.783333;stroke-linecap:round;stroke-miterlimit:4;stroke-dasharray:none"
       d="m -35.094919,933.08732 c 0.200639,-1.49593 -0.543555,-4.30269 -1.996292,-7.52903 -0.649597,-1.44266 -1.181097,-2.68965 -1.181097,-2.77108 0,-0.0814 0.583097,-0.14806 1.295778,-0.14806 1.262611,0 1.308847,-0.0343 1.807181,-1.33914 0.281291,-0.73652 1.112263,-2.21664 1.846611,-3.28914 1.859777,-2.71612 2.269944,-3.80747 2.03068,-5.40305 -0.25643,-1.70997 0.315959,-1.59921 1.281917,0.24807 0.583097,1.11512 0.667278,1.62239 0.539569,3.25119 -0.171777,2.19067 -0.642458,3.47139 -1.923291,5.23334 -1.756931,2.41687 -2.148125,3.5365 -2.424736,6.93989 -0.269389,3.31427 -0.71,5.49475 -1.1675,5.7775 -0.14332,0.0886 -0.192292,-0.34814 -0.108889,-0.97049 z"
       id="path997" />
    <path
       style="fill:url(#linearGradient1022);fill-opacity:1;stroke:#000000;stroke-width:0.783333;stroke-linecap:round;stroke-miterlimit:4;stroke-dasharray:none"
       d="m 7.5439009,940.89925 c 0.069444,-0.4899 0.4740278,-2.22683 0.8991945,-3.85986 0.4251805,-1.63301 1.0168055,-4.83967 1.3147361,-7.12589 l 0.5416945,-4.15676 0.83168,2.65868 c 1.205403,3.85341 1.233639,4.27411 0.421125,6.27514 -0.723472,1.78173 -2.7665551,5.42334 -3.6499023,6.50561 -0.4700139,0.57584 -0.4808611,0.56686 -0.3585278,-0.29692 z"
       id="path999" />
    <path
       style="fill:url(#linearGradient1024);fill-opacity:1;stroke:#000000;stroke-width:0.783333;stroke-linecap:round;stroke-miterlimit:4;stroke-dasharray:none"
       d="m 22.554095,958.07125 c -0.563472,-0.67894 -0.550138,-6.87292 0.01903,-8.83447 l 0.423792,-1.46057 0.397917,1.14935 c 0.454097,1.31162 0.808944,1.61237 1.909944,1.61879 1.940778,0.0111 1.766292,1.858 -0.52575,5.56434 -1.539444,2.48938 -1.682778,2.6158 -2.224917,1.96256 z"
       id="path1001" />
    <path
       style="fill:url(#linearGradient1026);fill-opacity:1;stroke:#000000;stroke-width:0.969444;stroke-linecap:round;stroke-miterlimit:4;stroke-dasharray:none"
       d="m -86.542086,987.84076 c -3.359111,-4.46859 -4.5415,-6.70654 -6.179458,-11.696 -2.661723,-8.10801 -2.208889,-14.44895 1.327,-18.58183 4.433458,-5.182 9.286903,-11.69151 10.688528,-14.33562 l 1.513013,-2.85421 1.301,2.55018 c 2.80057,5.48957 1.484292,10.65283 -4.507027,17.67937 -3.313903,3.8865 -3.988625,5.18189 -2.376931,4.56342 0.489903,-0.18799 0.890736,-0.0829 0.890736,0.23339 0,0.31635 0.429417,0.57518 0.954264,0.57518 0.669597,0 0.831597,0.31001 0.543056,1.03919 -1.913639,4.83609 -2.548737,13.60325 -1.467945,20.2641 0.337834,2.08201 0.501472,3.89825 0.363639,4.03608 -0.137778,0.13778 -1.510278,-1.42513 -3.049875,-3.47325 z"
       id="path1003" />
    <path
       style="fill:url(#linearGradient1028);fill-opacity:1;stroke:#000000;stroke-width:1.24722;stroke-linecap:round;stroke-miterlimit:4;stroke-dasharray:none"
       d="m -80.32228,1013.0336 c 0,-1.5201 -6.75857,-7.8182 -15.144681,-14.11279 -4.967349,-3.72849 -9.786319,-7.76863 -10.708819,-8.9781 -2.90022,-3.80239 -4.4017,-8.30499 -4.41745,-13.24704 l -0.0142,-4.42148 1.85922,2.93169 c 1.02257,1.61241 7.27676,8.41206 13.898223,15.11031 l 12.039,12.17861 1.618083,5.2181 c 0.889945,2.8699 1.449875,5.3863 1.244292,5.5918 -0.205583,0.2056 -0.373778,0.084 -0.373778,-0.2711 z"
       id="path1005" />
    <path
       style="fill:url(#linearGradient1030);fill-opacity:1;stroke:#000000;stroke-width:1.38611;stroke-linecap:round;stroke-miterlimit:4;stroke-dasharray:none"
       d="m -4.5726409,1128.6451 c -0.8212916,-2.927 -0.8914444,-4.1539 -0.3751666,-6.5613 0.3492639,-1.6285 0.6350278,-3.6651 0.6350278,-4.5257 0,-2.498 -2.2836945,-6.5369 -4.4548751,-7.8787 -2.2730282,-1.4048 -7.6491252,-2.2601 -8.2361672,-1.3102 -0.209708,0.3393 0.06069,2.4587 0.601,4.7098 0.632292,2.6346 0.830612,4.9016 0.55657,6.3623 l -0.425722,2.2693 -1.460236,-2.149 c -2.028667,-2.9854 -4.233362,-3.9409 -10.532278,-4.5648 -7.58907,-0.7515 -9.033139,-1.0529 -12.496292,-2.6081 -3.055472,-1.372 -13.652389,-8.6256 -13.225306,-9.0527 0.125556,-0.1256 2.565098,0.4488 5.42107,1.2764 5.905625,1.7114 9.81043,1.9729 9.81043,0.6571 0,-1.1385 -2.041291,-2.6743 -9.637527,-7.2511 -3.517653,-2.1194 -6.395737,-4.0857 -6.395737,-4.3694 0,-0.2838 -0.601236,-0.7018 -1.336097,-0.9291 -0.734861,-0.2272 -2.593139,-1.5145 -4.129528,-2.8607 -1.536375,-1.3461 -3.74068,-3.2084 -4.898458,-4.1385 -3.180389,-2.5548 -9.164222,-10.8157 -11.464306,-15.8268 -3.43393,-7.4814 -4.517611,-12.8753 -4.116,-20.487 0.189556,-3.5926 0.7995,-8.9253 1.355431,-11.8504 l 1.010764,-5.3184 0.804028,3.24 c 3.624708,14.6066 21.635778,35.7792 39.428903,46.3498 2.294389,1.3631 7.689611,3.7855 11.989389,5.3831 16.2563887,6.0403 19.8031248,8.6864 24.7685554,18.4792 3.4409861,6.7864 3.6515556,9.3404 1.29388889,15.6946 -0.99501389,2.6816 -1.98773609,6.2223 -2.20606949,7.8681 -0.2183333,1.6459 -0.5945555,2.9925 -0.8360417,2.9925 -0.2414861,0 -0.8936527,-1.6201 -1.44925,-3.6003 z"
       id="path1007" />
  </g>
</svg>
